<svg width="41" height="41" viewBox="0 0 41 41" fill="none" xmlns="http://www.w3.org/2000/svg">
<g clip-path="url(#clip0_812_79)">
<path d="M20.7479 26.4335C24.2051 26.4335 27.0077 23.6335 27.0077 20.1794C27.0077 16.7254 24.2051 13.9253 20.7479 13.9253C17.2907 13.9253 14.4881 16.7254 14.4881 20.1794C14.4881 23.6335 17.2907 26.4335 20.7479 26.4335Z" stroke="white" stroke-width="2.5" stroke-miterlimit="10"/>
<path d="M28.2596 5.16943H13.2362C9.08757 5.16943 5.72446 8.52951 5.72446 12.6744V27.6842C5.72446 31.8291 9.08757 35.1892 13.2362 35.1892H28.2596C32.4082 35.1892 35.7713 31.8291 35.7713 27.6842V12.6744C35.7713 8.52951 32.4082 5.16943 28.2596 5.16943Z" stroke="white" stroke-width="2.5" stroke-linecap="round" stroke-linejoin="round"/>
<path d="M28.8856 13.9248C29.9227 13.9248 30.7635 13.0848 30.7635 12.0486C30.7635 11.0124 29.9227 10.1724 28.8856 10.1724C27.8484 10.1724 27.0077 11.0124 27.0077 12.0486C27.0077 13.0848 27.8484 13.9248 28.8856 13.9248Z" fill="white"/>
</g>
<defs>
<clipPath id="clip0_812_79">
<rect width="40.0625" height="40.0263" fill="white" transform="translate(0.716644 0.166016)"/>
</clipPath>
</defs>
</svg>
