<svg width="41" height="41" viewBox="0 0 41 41" fill="none" xmlns="http://www.w3.org/2000/svg">
<g clip-path="url(#clip0_812_94)">
<path d="M20.0979 14.5923L15.0901 35.8563" stroke="white" stroke-width="2.5" stroke-linecap="round" stroke-linejoin="round"/>
<path d="M10.5048 24.5993C9.54558 22.9377 8.98172 21.0779 8.85682 19.1638C8.73191 17.2497 9.0493 15.3325 9.78444 13.5606C10.5196 11.7886 11.6528 10.2093 13.0964 8.94473C14.54 7.68019 16.2554 6.76431 18.1099 6.26791C19.9644 5.77151 21.9083 5.70788 23.7913 6.08196C25.6744 6.45603 27.4461 7.25778 28.9694 8.42521C30.4928 9.59264 31.727 11.0945 32.5767 12.8146C33.4263 14.5347 33.8686 16.427 33.8694 18.3452C33.8694 25.2528 28.8615 29.6026 23.8537 29.6026C18.8459 29.6026 17.3389 26.3082 17.3389 26.3082" stroke="white" stroke-width="2.5" stroke-linecap="round" stroke-linejoin="round"/>
</g>
<defs>
<clipPath id="clip0_812_94">
<rect width="40.0625" height="40.0263" fill="white" transform="translate(0.0666199 0.833496)"/>
</clipPath>
</defs>
</svg>
