<svg width="23" height="42" viewBox="0 0 23 42" fill="none" xmlns="http://www.w3.org/2000/svg">
<path d="M21.6547 22.3671L3.317 40.7004C3.14662 40.8708 2.94436 41.0059 2.72175 41.0981C2.49914 41.1903 2.26055 41.2377 2.01961 41.2377C1.77866 41.2377 1.54007 41.1903 1.31746 41.0981C1.09485 41.0059 0.892588 40.8708 0.722211 40.7004C0.551835 40.5301 0.416686 40.3279 0.324479 40.1053C0.232272 39.8828 0.184814 39.6443 0.184814 39.4034C0.184814 39.1625 0.232272 38.9239 0.324479 38.7014C0.416686 38.4788 0.551835 38.2766 0.722211 38.1063L17.7648 21.07L0.722211 4.03378C0.378121 3.68977 0.184814 3.2232 0.184814 2.7367C0.184814 2.2502 0.378121 1.78362 0.722211 1.43961C1.0663 1.09561 1.53299 0.902344 2.01961 0.902344C2.50622 0.902344 2.97291 1.09561 3.317 1.43961L21.6547 19.7729C21.8252 19.9432 21.9605 20.1454 22.0528 20.368C22.145 20.5905 22.1925 20.8291 22.1925 21.07C22.1925 21.311 22.145 21.5495 22.0528 21.7721C21.9605 21.9947 21.8252 22.1968 21.6547 22.3671Z" fill="black"/>
</svg>
