<svg width="51" height="51" viewBox="0 0 51 51" fill="none" xmlns="http://www.w3.org/2000/svg">
<path d="M49.4177 27.3416L30.6574 49.7941C30.2663 50.2622 29.7358 50.5252 29.1827 50.5252C28.6295 50.5252 28.099 50.2622 27.7079 49.7941C27.3168 49.326 27.097 48.6911 27.097 48.0291C27.097 47.3671 27.3168 46.7322 27.7079 46.2641L42.9115 28.0713H2.08448C1.53164 28.0713 1.00144 27.8085 0.610529 27.3406C0.219614 26.8728 0 26.2382 0 25.5766C0 24.9149 0.219614 24.2804 0.610529 23.8125C1.00144 23.3447 1.53164 23.0819 2.08448 23.0819H42.9115L27.7079 4.88906C27.3168 4.42095 27.097 3.78605 27.097 3.12404C27.097 2.46203 27.3168 1.82714 27.7079 1.35902C28.099 0.890912 28.6295 0.62793 29.1827 0.62793C29.7358 0.62793 30.2663 0.890912 30.6574 1.35902L49.4177 23.8116C49.6115 24.0432 49.7653 24.3184 49.8702 24.6212C49.9751 24.9241 50.029 25.2487 50.029 25.5766C50.029 25.9044 49.9751 26.2291 49.8702 26.5319C49.7653 26.8348 49.6115 27.1099 49.4177 27.3416Z" fill="white"/>
</svg>
